# xmcd CD database file
#
# Track frame offsets:
#	150
#	13522
#	26837
#	43357
#	58750
#	76492
#	93205
#	109517
#	125960
#	146902
#	163362
#	176807
#	190044
#	204084
#	216992
#	236584
#	253707
#	266849
#	281722
#	295877
#
# Disc length: 4160 seconds
#
# Revision: 0
# Processed by: cddbd v1.5.2PL0 Copyright (c) Steve Scherf et al.
# Submitted via: CDex 1.70
#
DISCID=3b103e14
DTITLE=Brooks and Dunn - Hard Workin Man
DYEAR=1993
DGENRE=Country
TTITLE0=Hard Workin Man
TTITLE1=We'll Burn that Bridge
TTITLE2=Mexican Minutes
TTITLE3=Heartbroke Out of My Mind
TTITLE4=She Used to Be Mine
TTITLE5=Rock My World (Little Country Girl)
TTITLE6=That Ain't No Way to Go
TTITLE7=Texas Women (Don't Stay Lonely Long)
TTITLE8=Our Time Is Coming
TTITLE9=I Can't Put Out This Fire
TTITLE10=Brand New Man
TTITLE11=Working on My Next Broken Heart
TTITLE12=Cool Drink of Water
TTITLE13=Cheatin On The Blues Tonight
TTITLE14=Beneath The Light of a Neon Moon
TTITLE15=Lost and Found (In a Border Town)
TTITLE16=A Lot To Learn
TTITLE17=Boot Scootin Boogie
TTITLE18=No Good (When You're Not Around)
TTITLE19=Still in Love With You
EXTD=YEAR: 1993
EXTT0=
EXTT1=
EXTT2=
EXTT3=
EXTT4=
EXTT5=
EXTT6=
EXTT7=
EXTT8=
EXTT9=
EXTT10=
EXTT11=
EXTT12=
EXTT13=
EXTT14=
EXTT15=
EXTT16=
EXTT17=
EXTT18=
EXTT19=
PLAYORDER=
